HIERARCHY
ROOT root
{
	OFFSET 0.000000 0.000000 0.000000
	CHANNELS 6 Xposition Yposition Zposition Zrotation Yrotation Xrotation
	JOINT lhip
	{
		OFFSET 0.058581 -0.082280 -0.017664
		CHANNELS 3 Zrotation Yrotation Xrotation
		JOINT lknee
		{
			OFFSET 0.043451 -0.386469 0.008037
			CHANNELS 3 Zrotation Yrotation Xrotation
			JOINT lankle
			{
				OFFSET -0.014790 -0.426874 -0.037428
				CHANNELS 3 Zrotation Yrotation Xrotation
				JOINT ltoe
				{
					OFFSET 0.041054 -0.060286 0.122042
					CHANNELS 3 Zrotation Yrotation Xrotation
					End Site
					{
						OFFSET 0.000000 0.000000 0.000000
					}
				}
			}
		}
	}
	JOINT rhip
	{
		OFFSET -0.060310 -0.090513 -0.013543
		CHANNELS 3 Zrotation Yrotation Xrotation
		JOINT rknee
		{
			OFFSET -0.043257 -0.383688 -0.004843
			CHANNELS 3 Zrotation Yrotation Xrotation
			JOINT rankle
			{
				OFFSET 0.019056 -0.420046 -0.034562
				CHANNELS 3 Zrotation Yrotation Xrotation
				JOINT rtoe
				{
					OFFSET -0.034840 -0.062106 0.130323
					CHANNELS 3 Zrotation Yrotation Xrotation
					End Site
					{
						OFFSET 0.000000 0.000000 0.000000
					}
				}
			}
		}
	}
	JOINT lowerback
	{
		OFFSET 0.004439 0.124404 -0.038385
		CHANNELS 3 Zrotation Yrotation Xrotation
		JOINT upperback
		{
			OFFSET 0.004488 0.137956 0.026820
			CHANNELS 3 Zrotation Yrotation Xrotation
			JOINT chest
			{
				OFFSET -0.002265 0.056032 0.002855
				CHANNELS 3 Zrotation Yrotation Xrotation
				JOINT lowerneck
				{
					OFFSET -0.013390 0.211636 -0.033468
					CHANNELS 3 Zrotation Yrotation Xrotation
					JOINT upperneck
					{
						OFFSET 0.010113 0.088937 0.050410
						CHANNELS 3 Zrotation Yrotation Xrotation
						End Site
						{
							OFFSET 0.000000 0.000000 0.000000
						}
					}
				}
				JOINT lclavicle
				{
					OFFSET 0.071702 0.114000 -0.018898
					CHANNELS 3 Zrotation Yrotation Xrotation
					JOINT lshoulder
					{
						OFFSET 0.122921 0.045205 -0.019046
						CHANNELS 3 Zrotation Yrotation Xrotation
						JOINT lelbow
						{
							OFFSET 0.255332 -0.015649 -0.022946
							CHANNELS 3 Zrotation Yrotation Xrotation
							JOINT lwrist
							{
								OFFSET 0.265709 0.012698 -0.007375
								CHANNELS 3 Zrotation Yrotation Xrotation
								End Site
								{
									OFFSET 0.000000 0.000000 0.000000
								}
							}
						}
					}
				}
				JOINT rclavicle
				{
					OFFSET -0.082954 0.112472 -0.023707
					CHANNELS 3 Zrotation Yrotation Xrotation
					JOINT rshoulder
					{
						OFFSET -0.113228 0.046853 -0.008472
						CHANNELS 3 Zrotation Yrotation Xrotation
						JOINT relbow
						{
							OFFSET -0.260127 -0.014369 -0.031269
							CHANNELS 3 Zrotation Yrotation Xrotation
							JOINT rwrist
							{
								OFFSET -0.269108 0.006794 -0.006027
								CHANNELS 3 Zrotation Yrotation Xrotation
								End Site
								{
									OFFSET 0.000000 0.000000 0.000000
								}
							}
						}
					}
				}
			}
		}
	}
}
MOTION
Frames: 11
Frame Time: 0.033333
0.041214 0.784106 0.981602 91.370078 5.596819 85.908752 4.497159 -3.399379 -2.166598 -2.449998 -5.961668 17.885215 -2.629453 10.483795 -24.660363 0.000000 -0.000000 0.000000 -4.105324 2.851303 -15.429463 -2.522752 -3.662349 28.633518 10.003579 -4.850344 -14.402654 0.000000 -0.000000 0.000000 -4.514076 3.214481 16.628650 3.560063 -2.735347 5.836671 3.076804 -0.706260 1.142905 3.998900 1.542765 14.051401 3.605282 -5.925909 12.681817 -20.232212 -10.219752 2.633447 -54.137088 -15.259144 9.949878 13.574947 -28.672043 -0.088597 -14.661010 -9.878244 5.107572 22.503805 4.797981 3.026903 45.392230 -5.631773 8.281750 -10.998780 33.515517 7.408461 18.078704 3.378602 0.229381 
0.057287 0.781177 0.980288 93.063613 5.628286 85.685100 4.785335 -3.450713 -0.826286 -2.620257 -7.032225 17.870062 -2.581410 10.149037 -25.734587 0.000000 -0.000000 0.000000 -5.029033 2.364630 -16.857940 -2.595485 -4.558577 27.749689 10.489521 -5.291225 -12.816504 0.000000 -0.000000 0.000000 -4.662421 2.747576 16.779817 3.962852 -3.385383 6.018108 3.349006 -1.354463 1.548233 4.241413 1.511554 14.318111 3.680500 -5.942032 12.721774 -19.920157 -10.914973 2.683081 -55.083448 -17.180066 10.731113 13.752807 -28.369515 0.800168 -14.685428 -9.626828 5.088333 22.479018 3.969235 2.872391 46.699295 -6.994302 8.737191 -11.256124 32.793239 8.117330 17.450520 3.442475 -0.056146 
0.073933 0.777397 0.978405 94.488683 5.617579 85.724033 5.135674 -3.546889 0.178411 -2.811886 -7.954223 18.074859 -2.523635 9.913253 -26.780635 0.000000 -0.000000 0.000000 -5.943435 1.792835 -18.317797 -2.349514 -5.553986 26.712944 10.993759 -5.587399 -10.905998 0.000000 -0.000000 0.000000 -4.787462 2.235538 16.803142 4.316937 -3.850127 5.879382 3.583034 -1.910590 1.995312 4.372789 1.467654 14.425491 3.491261 -5.547407 13.078839 -19.866637 -11.023863 2.566174 -56.493905 -19.072427 11.688724 13.619815 -28.389096 1.347745 -14.785962 -9.492887 4.531675 22.971623 2.756913 2.949011 47.815432 -8.371404 9.142789 -11.562588 32.200419 8.356839 17.876374 3.157025 0.152024 
0.091779 0.772391 0.975949 95.515446 5.593318 85.469028 5.591582 -3.262287 1.474255 -2.929046 -8.856859 18.573974 -2.574342 9.539910 -28.028180 0.000000 -0.000000 0.000000 -6.541576 1.108442 -19.267909 -2.135738 -6.610025 25.613244 11.498380 -5.337827 -8.560277 0.000000 -0.000000 0.000000 -4.862044 1.901454 16.875778 4.524094 -4.368351 6.132963 3.701759 -2.180792 1.786879 4.213947 1.488025 15.310364 4.707619 -6.159755 12.606021 -19.849728 -11.674659 3.309470 -57.789741 -20.286168 12.388904 13.392246 -29.247084 2.467802 -14.142978 -9.766782 4.433671 23.254321 1.979362 3.736208 49.656028 -9.718732 8.541597 -11.871308 31.581529 8.397138 17.351073 3.104590 -0.226674 
0.110830 0.766539 0.973075 96.164038 5.471429 85.211952 5.950698 -3.265462 2.928677 -2.975349 -9.413168 18.970414 -2.612723 9.517507 -29.151634 0.000000 -0.000000 0.000000 -7.101623 0.759125 -19.885340 -1.581421 -7.705866 24.240573 12.564756 -5.218139 -6.499458 0.000000 -0.000000 0.000000 -4.952051 1.512196 16.995504 4.764867 -4.667410 6.282402 3.739869 -2.563676 1.775929 4.348229 1.626982 15.206903 4.779784 -6.011469 13.092099 -20.188757 -11.711392 3.537882 -59.585052 -21.506427 13.564379 13.465197 -29.873293 3.324300 -14.600506 -9.945761 4.216430 23.855557 0.720119 3.672260 51.190038 -10.996244 8.467995 -13.030101 31.266748 8.149639 19.346108 2.635638 -0.590892 
0.131724 0.759506 0.969938 96.615930 5.286543 85.132296 6.366220 -3.316210 4.354674 -3.027197 -9.796713 19.307701 -2.684517 9.505739 -30.158323 0.000000 -0.000000 0.000000 -7.358759 0.527868 -20.253736 -1.044136 -8.932927 22.693642 13.245590 -4.906939 -4.946323 0.000000 -0.000000 0.000000 -4.990620 0.971953 16.718243 4.830406 -5.011013 6.401515 3.745360 -2.986421 1.830601 4.299793 1.830619 15.519773 4.825914 -5.515651 13.223645 -20.791954 -11.738783 4.050977 -61.210329 -22.225792 14.322466 13.506541 -30.764614 4.062725 -15.317501 -9.901247 4.106882 24.169762 -0.205362 3.983027 52.865326 -11.756196 8.118808 -13.506667 30.283960 7.864065 19.815306 2.369857 -1.085031 
0.153738 0.751592 0.966815 97.078414 5.033818 85.092601 6.850519 -3.370649 5.968127 -3.120267 -10.044141 19.374369 -3.278501 9.453084 -30.949199 0.000000 -0.000000 0.000000 -7.308776 0.470000 -20.349853 -0.631022 -9.912471 21.273708 13.792114 -4.776893 -4.004752 0.000000 -0.000000 0.000000 -4.820324 0.251869 16.220894 4.846098 -5.469729 6.840217 3.597056 -3.460517 1.848610 4.237770 1.961030 15.196471 4.401137 -4.990060 13.510068 -21.490245 -11.737494 4.408592 -62.731019 -22.757105 15.168870 13.452050 -31.337099 4.703631 -15.877295 -9.961837 3.945818 24.477144 -0.885367 3.985555 54.401896 -12.574388 8.074463 -14.344255 29.323026 7.160814 19.912608 2.326891 -1.381785 
0.177058 0.742483 0.963854 97.442927 4.657153 85.333520 7.347266 -3.185341 7.485156 -3.028842 -10.630173 19.125453 -3.676495 9.165341 -31.446925 0.000000 -0.000000 0.000000 -6.973041 0.298000 -20.733884 -0.246955 -10.211428 20.649007 13.505040 -4.480012 -3.524390 0.000000 -0.000000 0.000000 -4.551175 -0.533891 15.461824 4.801191 -5.888904 7.088422 3.437342 -3.918965 1.741830 3.803128 2.244853 15.148448 4.274885 -4.445088 13.406102 -22.152825 -11.902110 4.849985 -64.243601 -22.886231 15.892890 13.272891 -31.535983 5.669366 -15.682474 -10.339967 3.778127 24.590380 -1.573389 4.174538 55.762815 -13.239310 7.643234 -14.657784 28.134633 7.236214 19.214295 2.182901 -1.344397 
0.201231 0.732225 0.961504 97.857295 4.179969 85.648451 7.950649 -3.187266 9.085334 -3.020700 -11.343984 18.521825 -4.136782 8.795723 -31.428992 0.000000 -0.000000 0.000000 -6.385096 0.621900 -21.429842 -0.423788 -10.097186 22.123941 11.904311 -5.022311 -4.758235 0.000000 -0.000000 0.000000 -4.198205 -1.464418 14.753519 4.781443 -6.276849 7.115553 3.183189 -4.404282 1.674366 3.135623 2.609480 15.001159 4.224881 -4.069015 13.624473 -22.573860 -12.155899 5.339940 -65.650414 -22.729788 16.422149 13.145756 -31.506600 6.982587 -15.957935 -10.435200 3.898101 24.598475 -1.995427 4.348181 57.044050 -13.851217 6.958228 -15.396613 27.106336 6.591772 19.476521 2.035465 -2.116962 
0.224997 0.721470 0.960138 98.273789 3.571681 86.059314 8.357806 -3.251596 10.413173 -2.892694 -12.099857 18.130558 -4.833307 8.416666 -30.905011 0.000000 -0.000000 0.000000 -5.854725 1.589951 -22.612282 -1.381204 -9.444464 26.412459 10.399904 -6.294173 -7.261282 0.000000 -0.000000 0.000000 -3.742624 -2.630767 14.076660 4.779764 -6.481106 7.432002 2.868393 -4.892093 1.595931 2.630848 3.145150 14.221818 3.488934 -3.409175 13.992025 -23.036699 -12.285412 5.564697 -66.649387 -22.621157 16.854891 13.118978 -31.477755 8.094911 -16.725015 -10.445701 3.694050 24.633809 -2.025735 4.216340 58.075627 -14.114742 6.588249 -16.338595 25.519779 5.299446 19.458246 2.075795 -2.487905 
0.248355 0.711105 0.960206 98.769596 2.988581 86.716788 8.508446 -3.706482 11.092420 -2.712519 -12.696992 18.327331 -5.341940 8.196014 -30.046353 0.000000 -0.000000 0.000000 -5.474708 2.587851 -23.194139 -1.984858 -9.183844 29.590401 9.498837 -7.365583 -9.900765 0.000000 -0.000000 0.000000 -2.807229 -3.914701 13.525303 4.747336 -6.629426 7.557616 2.531651 -5.335187 1.367766 1.909145 3.519734 13.419236 2.344596 -2.112009 14.338248 -23.817310 -12.356224 5.588585 -67.129658 -22.092230 17.190618 13.023713 -31.847473 8.620033 -17.242077 -10.276261 4.169097 24.523411 -2.004611 3.713295 58.470759 -14.545829 6.317175 -16.867026 24.310405 3.899670 19.343416 2.108238 -2.313055 
